<svg version="1.1" xmlns="http://www.w3.org/2000/svg" viewBox="0 0 1408.3812413845644 607.6308085740928" width="2816.762482769129" height="1215.2616171481857">
  <!-- svg-source:excalidraw -->
  
  <defs>
    <style>
      @font-face {
        font-family: "Virgil";
        src: url("https://excalidraw.com/Virgil.woff2");
      }
      @font-face {
        font-family: "Cascadia";
        src: url("https://excalidraw.com/Cascadia.woff2");
      }
    </style>
  </defs>
  <rect x="0" y="0" width="1408.3812413845644" height="607.6308085740928" fill="#ffffff"></rect><g stroke-linecap="round" transform="translate(58.49940999067803 241.3036419468965) rotate(0 61 48)"><path d="M1.32 0 C44.82 1.36, 92.74 3.07, 121.62 -1.34 M-0.72 0.5 C44.94 0.2, 88.92 0.92, 121.82 0.6 M121.05 1.66 C120.82 21.29, 122.11 43.35, 122.32 95.29 M122.41 0.66 C121.64 34.09, 120.96 69.27, 122.68 95.43 M120.24 95 C75.08 94.11, 28.45 94.25, 1.17 94.3 M121.33 96.57 C84.63 96.29, 46.26 95.59, 0.93 96.31 M-0.62 97.84 C0.14 72.35, -0.08 43.96, -1.44 -0.51 M0.88 95.42 C-0.34 64.97, 0.43 31.83, -0.84 -0.54" stroke="#000000" stroke-width="1" fill="none"></path></g><g transform="translate(98.99940999067803 277.8036419468965) rotate(0 20.5 11.5)"><text x="20.5" y="18" font-family="Helvetica, Segoe UI Emoji" font-size="20px" fill="#000000" text-anchor="middle" style="white-space: pre;" direction="ltr">user</text></g><g stroke-linecap="round"><g transform="translate(178.49940999067803 290.3036419468965) rotate(0 40.48655214731994 -0.5861192913695845)"><path d="M1.16 0.61 C14.79 0.48, 67.52 0.22, 80.66 -0.08 M0.31 -0.11 C13.84 -0.64, 65.86 -1.8, 79.53 -1.79" stroke="#000000" stroke-width="1" fill="none"></path></g><g transform="translate(178.49940999067803 290.3036419468965) rotate(0 40.48655214731994 -0.5861192913695845)"><path d="M52.49 8.26 C58.62 4.66, 62.66 5.58, 81.4 -0.72 M51.67 8.74 C60.38 5.64, 69.39 1.2, 79.74 -0.97" stroke="#000000" stroke-width="1" fill="none"></path></g><g transform="translate(178.49940999067803 290.3036419468965) rotate(0 40.48655214731994 -0.5861192913695845)"><path d="M52.24 -12.26 C58.54 -11.56, 62.64 -6.34, 81.4 -0.72 M51.41 -11.78 C60.1 -8.07, 69.19 -5.69, 79.74 -0.97" stroke="#000000" stroke-width="1" fill="none"></path></g></g><g stroke-linecap="round"><g transform="translate(538.7445139881538 280.01680538090756) rotate(0 40.17091598387299 2.061360393960541)"><path d="M0.17 1.15 C13.9 1.8, 68.1 3.35, 81.54 3.41 M-1.2 0.71 C12.48 1.09, 67.3 1.59, 80.81 1.87" stroke="#000000" stroke-width="1" fill="none"></path></g><g transform="translate(538.7445139881538 280.01680538090756) rotate(0 40.17091598387299 2.061360393960541)"><path d="M54.4 12.43 C60.92 8.88, 64.32 6.27, 80.29 -0.05 M52.95 11.71 C59.05 8.55, 65.61 6.56, 80.54 1.49" stroke="#000000" stroke-width="1" fill="none"></path></g><g transform="translate(538.7445139881538 280.01680538090756) rotate(0 40.17091598387299 2.061360393960541)"><path d="M54.7 -8.09 C61.08 -6.9, 64.4 -4.76, 80.29 -0.05 M53.24 -8.81 C59.4 -7.1, 65.89 -4.23, 80.54 1.49" stroke="#000000" stroke-width="1" fill="none"></path></g></g><g stroke-linecap="round" transform="translate(458.49940999067803 240.3036419468965) rotate(0 37.5 38)"><path d="M55.1 5.15 C61.78 8.21, 69.02 15.89, 72.2 22.5 C75.38 29.12, 75.53 37.76, 74.18 44.84 C72.84 51.92, 69.36 59.69, 64.14 64.97 C58.91 70.26, 50.27 75.52, 42.84 76.56 C35.4 77.61, 25.95 74.81, 19.53 71.26 C13.11 67.71, 7.38 62, 4.33 55.26 C1.27 48.51, 0.07 38.21, 1.23 30.79 C2.39 23.37, 6.07 15.99, 11.27 10.74 C16.46 5.5, 24.31 -0.15, 32.39 -0.66 C40.47 -1.17, 54.44 5.51, 59.75 7.69 C65.07 9.86, 64.37 11.72, 64.27 12.37 M46.21 0.47 C53.26 1.73, 60.87 7.34, 65.47 12.86 C70.07 18.39, 73.34 26.07, 73.83 33.62 C74.33 41.16, 72.05 51.84, 68.42 58.14 C64.8 64.44, 58.53 68.69, 52.09 71.4 C45.66 74.1, 36.7 75.78, 29.82 74.38 C22.94 72.97, 15.9 68.3, 10.81 62.96 C5.73 57.62, 0.23 49.52, -0.7 42.35 C-1.62 35.19, 1.45 26.3, 5.26 19.97 C9.07 13.64, 15.64 7.77, 22.18 4.38 C28.71 0.98, 40.83 -0.13, 44.47 -0.41 C48.1 -0.7, 43.79 2.06, 43.99 2.68" stroke="#000000" stroke-width="1" fill="none"></path></g><g transform="translate(476.49940999067803 266.8036419468965) rotate(0 19.5 11.5)"><text x="19.5" y="18" font-family="Helvetica, Segoe UI Emoji" font-size="20px" fill="#000000" text-anchor="middle" style="white-space: pre;" direction="ltr">task</text></g><g stroke-linecap="round" transform="translate(625.499409990678 244.3036419468965) rotate(0 46 37.5)"><path d="M45.23 0.88 C56.38 5.77, 64.47 14.4, 91.28 38.15 M46.17 0.25 C63.27 13.86, 78.84 26.99, 92.79 38.44 M91.07 39.55 C74.03 49.88, 58.51 66.19, 47.64 74.16 M92.15 38.68 C82.54 45.52, 72.04 53.28, 47.45 74.12 M48.59 74.63 C30.68 63.65, 17.27 49.4, 1.41 38.96 M46.38 74.01 C29.37 60.33, 11.8 45.76, -0.91 38.45 M0.95 36.79 C9.5 29.07, 17.2 22.92, 45.43 -0.88 M-0.82 38.97 C14.28 25.23, 28.93 14.53, 47.72 0.93" stroke="#000000" stroke-width="1" fill="none"></path></g><g transform="translate(631.999409990678 270.3036419468965) rotate(0 39.5 11.5)"><text x="39.5" y="18" font-family="Helvetica, Segoe UI Emoji" font-size="20px" fill="#a61e4d" text-anchor="middle" style="white-space: pre;" direction="ltr">approval</text></g><g stroke-linecap="round" transform="translate(628.499409990678 422.3036419468965) rotate(0 46.5 42.5)"><path d="M-1.43 -0.8 C19.08 -1.75, 39.84 -0.31, 93.91 -0.79 M0.96 -0.03 C34.88 0.04, 69.8 -0.83, 92.56 0.31 M92.46 0.32 C95.07 31.36, 94.94 59.68, 93.6 86.58 M93.43 0.6 C93.1 25.52, 92.87 48.24, 93.64 84.28 M94.15 83.58 C66.13 86.64, 35.73 86.84, 1.94 83.41 M92.99 85.21 C59.23 85.68, 24.45 85.49, 0.86 85.44 M0.46 85.98 C1.16 63.45, -1.62 37.56, -0.03 1.38 M0.96 84.49 C0.52 64.92, 0.88 45.28, -0.31 0.64" stroke="#000000" stroke-width="1" fill="none"></path></g><g transform="translate(635.499409990678 453.3036419468965) rotate(0 39.5 11.5)"><text x="39.5" y="18" font-family="Helvetica, Segoe UI Emoji" font-size="20px" fill="#000000" text-anchor="middle" style="white-space: pre;" direction="ltr">authority</text></g><g stroke-linecap="round"><g transform="translate(646.5087455720277 313.3112524751707) rotate(0 2.2679464234271904 46.106661530923674)"><path d="M0.94 -0.29 C1.57 15.23, 3.92 78.2, 4.56 93.7 M-0.03 -1.49 C0.34 13.64, 2.74 76.05, 3.4 91.95" stroke="#000000" stroke-width="1" fill="none"></path></g><g transform="translate(646.5087455720277 313.3112524751707) rotate(0 2.2679464234271904 46.106661530923674)"><path d="M-8.45 63.51 C-2.5 73.97, 0.02 83.57, 1.56 93.46 M-8.77 64.47 C-4.08 73.46, -0.29 83.89, 2.47 91.27" stroke="#000000" stroke-width="1" fill="none"></path></g><g transform="translate(646.5087455720277 313.3112524751707) rotate(0 2.2679464234271904 46.106661530923674)"><path d="M12.06 62.69 C10.51 73.62, 5.54 83.51, 1.56 93.46 M11.74 63.66 C8.97 72.81, 5.3 83.54, 2.47 91.27" stroke="#000000" stroke-width="1" fill="none"></path></g></g><g stroke-linecap="round"><g transform="translate(700.4973086432373 405.3036419468965) rotate(0 -0.26919868170222117 -50.777280982006545)"><path d="M0.49 0.09 C0.5 -16.74, 0.02 -84.91, -0.35 -101.64 M-0.71 -0.91 C-0.76 -17.53, -1.21 -83.55, -0.96 -100.44" stroke="#000000" stroke-width="1" fill="none"></path></g><g transform="translate(700.4973086432373 405.3036419468965) rotate(0 -0.26919868170222117 -50.777280982006545)"><path d="M9.38 -71.14 C5.63 -80.88, 5.15 -87.4, -2.92 -98.71 M10.2 -71.6 C6.19 -78.93, 4.97 -83.39, -1.51 -101.13" stroke="#000000" stroke-width="1" fill="none"></path></g><g transform="translate(700.4973086432373 405.3036419468965) rotate(0 -0.26919868170222117 -50.777280982006545)"><path d="M-11.15 -71.2 C-9.45 -81, -4.48 -87.51, -2.92 -98.71 M-10.32 -71.66 C-10.02 -79.17, -6.94 -83.62, -1.51 -101.13" stroke="#000000" stroke-width="1" fill="none"></path></g></g><g stroke-linecap="round" transform="translate(268.49940999067803 229.3036419468965) rotate(0 67 62.5)"><path d="M67.58 -1.61 C95.7 23.29, 120.4 48.9, 132.28 63.35 M67.86 -0.92 C82.16 12.98, 97.31 27.54, 133.61 63.7 M135.44 62.72 C111.05 84.39, 84.44 109.25, 67.58 123.62 M133.9 63.95 C114.3 82.34, 94.62 99.68, 67.06 125.41 M66.32 123.12 C53.1 111.21, 38.09 96.65, -1.23 61.97 M67.72 125.38 C51.22 108.52, 34.72 94.03, -0.89 63.75 M-0.41 61.26 C23.33 41.15, 43.04 21.72, 67.3 0.85 M-0.1 63.16 C13.74 49.9, 29.36 36.6, 67.54 0.64" stroke="#000000" stroke-width="1" fill="none"></path></g><g stroke-linecap="round"><g transform="translate(403.33076972617414 290.8856987682365) rotate(0 25.828058211929203 -0.15598326000414886)"><path d="M0.43 -0.81 C9.09 -1.07, 43.83 -1.49, 52.46 -1.69 M-0.8 1.38 C7.74 1.26, 43.24 -0.15, 52 -0.59" stroke="#000000" stroke-width="1" fill="none"></path></g><g transform="translate(403.33076972617414 290.8856987682365) rotate(0 25.828058211929203 -0.15598326000414886)"><path d="M26.85 10.83 C34.94 6.95, 42.55 3, 51.4 -0.08 M29.11 10.25 C34.51 6.81, 40.21 4.69, 52.89 -1.21" stroke="#000000" stroke-width="1" fill="none"></path></g><g transform="translate(403.33076972617414 290.8856987682365) rotate(0 25.828058211929203 -0.15598326000414886)"><path d="M26.08 -6.78 C34.41 -4.67, 42.29 -2.61, 51.4 -0.08 M28.34 -7.36 C33.89 -6.17, 39.8 -3.66, 52.89 -1.21" stroke="#000000" stroke-width="1" fill="none"></path></g></g><g transform="translate(274.99940999067803 234.3036419468965) rotate(0 60.5 57.5)"><text x="60.5" y="18" font-family="Helvetica, Segoe UI Emoji" font-size="20px" fill="#a61e4d" text-anchor="middle" style="white-space: pre;" direction="ltr">selectable </text><text x="60.5" y="41" font-family="Helvetica, Segoe UI Emoji" font-size="20px" fill="#a61e4d" text-anchor="middle" style="white-space: pre;" direction="ltr">parameters </text><text x="60.5" y="64" font-family="Helvetica, Segoe UI Emoji" font-size="20px" fill="#a61e4d" text-anchor="middle" style="white-space: pre;" direction="ltr">and </text><text x="60.5" y="87" font-family="Helvetica, Segoe UI Emoji" font-size="20px" fill="#a61e4d" text-anchor="middle" style="white-space: pre;" direction="ltr">environments</text><text x="60.5" y="110" font-family="Helvetica, Segoe UI Emoji" font-size="20px" fill="#a61e4d" text-anchor="middle" style="white-space: pre;" direction="ltr">by user</text></g><g stroke-linecap="round" transform="translate(927.499409990678 229.06171296799045) rotate(0 54.5 43.5)"><path d="M51.04 0.62 C59.7 -0.56, 71.98 0.94, 80.16 4.32 C88.33 7.7, 95.31 14.64, 100.1 20.91 C104.89 27.19, 108.29 34.77, 108.9 41.97 C109.51 49.17, 107.95 57.78, 103.76 64.09 C99.57 70.4, 91.63 75.89, 83.76 79.82 C75.88 83.75, 65.65 87.19, 56.5 87.67 C47.35 88.15, 36.92 86.07, 28.87 82.69 C20.82 79.31, 12.95 73.71, 8.19 67.4 C3.43 61.08, 0.8 52.07, 0.31 44.8 C-0.17 37.53, 1.2 30.09, 5.26 23.76 C9.31 17.43, 16.2 10.94, 24.64 6.82 C33.08 2.7, 49.68 0.07, 55.92 -0.96 C62.16 -1.99, 61.85 -0.07, 62.06 0.66 M35.79 2.9 C43.59 -0.25, 55.21 -1.8, 63.93 -0.68 C72.66 0.44, 81.46 4.74, 88.14 9.64 C94.82 14.55, 100.63 21.8, 104.01 28.74 C107.39 35.67, 109.62 44.11, 108.42 51.24 C107.22 58.37, 102.71 65.82, 96.8 71.5 C90.9 77.18, 81.21 82.72, 72.99 85.32 C64.78 87.92, 56.09 88.5, 47.51 87.1 C38.93 85.69, 28.61 81.53, 21.52 76.89 C14.43 72.26, 8.5 65.96, 4.95 59.26 C1.41 52.57, -0.97 43.92, 0.25 36.73 C1.47 29.54, 6.69 21.55, 12.27 16.12 C17.84 10.69, 29.85 6.04, 33.69 4.13 C37.52 2.21, 34.8 3.96, 35.28 4.64" stroke="#000000" stroke-width="1" fill="none"></path></g><g stroke-linecap="round"><g transform="translate(719.9362873460989 282.4228814984699) rotate(0 98.83560211012036 -1.0982371431614126)"><path d="M0.97 -0.38 C33.73 -0.78, 165.1 -1.61, 197.65 -1.88 M0.02 -1.63 C32.61 -1.86, 164.68 -0.47, 197.24 -0.31" stroke="#000000" stroke-width="1" fill="none"></path></g><g transform="translate(719.9362873460989 282.4228814984699) rotate(0 98.83560211012036 -1.0982371431614126)"><path d="M168.34 11.44 C180.15 5.01, 191.08 1.87, 197.13 -1.86 M168.8 10.57 C179.3 5.24, 190.81 1.07, 197.91 -0.27" stroke="#000000" stroke-width="1" fill="none"></path></g><g transform="translate(719.9362873460989 282.4228814984699) rotate(0 98.83560211012036 -1.0982371431614126)"><path d="M168.49 -9.08 C180.33 -7.43, 191.2 -2.5, 197.13 -1.86 M168.96 -9.95 C179.4 -7.48, 190.85 -3.85, 197.91 -0.27" stroke="#000000" stroke-width="1" fill="none"></path></g></g><g stroke-linecap="round"><g transform="translate(674.499409990678 243.3036419468965) rotate(0 -279.41407595137133 -50.04300146249693)"><path d="M-0.84 -1.1 C-45.91 -17.9, -177.38 -100.28, -270.54 -101.02 C-363.69 -101.76, -511.56 -21.41, -559.75 -5.54 M0.92 0.94 C-44.35 -15.65, -178.74 -98.58, -271.76 -99.49 C-364.79 -100.39, -509.25 -20.24, -557.25 -4.5" stroke="#000000" stroke-width="1" fill="none"></path></g><g transform="translate(674.499409990678 243.3036419468965) rotate(0 -279.41407595137133 -50.04300146249693)"><path d="M-537.13 -25.83 C-541.78 -20.36, -549.08 -14.23, -558.5 -3.39 M-534.3 -25.39 C-540.45 -20.51, -544.81 -16.58, -556.29 -4.05" stroke="#000000" stroke-width="1" fill="none"></path></g><g transform="translate(674.499409990678 243.3036419468965) rotate(0 -279.41407595137133 -50.04300146249693)"><path d="M-529.12 -6.94 C-536.09 -7.05, -545.73 -6.45, -558.5 -3.39 M-526.29 -6.49 C-534.2 -5.42, -540.19 -5.34, -556.29 -4.05" stroke="#000000" stroke-width="1" fill="none"></path></g></g><g transform="translate(314.49940999067803 164.3036419468965) rotate(0 82.5 11.5)"><text x="0" y="18" font-family="Helvetica, Segoe UI Emoji" font-size="20px" fill="#000000" text-anchor="start" style="white-space: pre;" direction="ltr">denied for revision</text></g><g transform="translate(767.499409990678 296.3036419468965) rotate(0 42.5 11.5)"><text x="0" y="18" font-family="Helvetica, Segoe UI Emoji" font-size="20px" fill="#000000" text-anchor="start" style="white-space: pre;" direction="ltr">approved</text></g><g transform="translate(931.499409990678 249.56171296799045) rotate(0 50.5 23)"><text x="50.5" y="18" font-family="Helvetica, Segoe UI Emoji" font-size="20px" fill="#000000" text-anchor="middle" style="white-space: pre;" direction="ltr">operate</text><text x="50.5" y="41" font-family="Helvetica, Segoe UI Emoji" font-size="20px" fill="#000000" text-anchor="middle" style="white-space: pre;" direction="ltr">automation</text></g><g transform="translate(1133.5335530131417 530.6953767428442) rotate(0 120 23)"><text x="0" y="18" font-family="Helvetica, Segoe UI Emoji" font-size="20px" fill="#000000" text-anchor="start" style="white-space: pre;" direction="ltr">Approvable automation </text><text x="0" y="41" font-family="Helvetica, Segoe UI Emoji" font-size="20px" fill="#000000" text-anchor="start" style="white-space: pre;" direction="ltr">platform like Ansible Tower</text></g><g stroke-linecap="round" transform="translate(1212.160210498408 116.55981211818937) rotate(0 75.52297363716343 40.86517066668428)"><path d="M0 0 C0 0, 0 0, 0 0 M0 0 C0 0, 0 0, 0 0 M0.09 6.09 C1.29 4.99, 2.43 2.93, 5.69 0.54 M0.02 6.28 C2.06 4.14, 3.59 2.1, 5.22 0.12 M0.01 12.1 C2.72 8.5, 3.12 6.07, 11.41 -0.69 M-0.33 12.7 C3.19 9.71, 4.26 6.74, 10.18 -0.18 M-1.09 20.12 C2.97 13.79, 8.35 9.33, 14.97 -0.98 M-0.85 18.18 C4.96 12.54, 10.32 6.65, 15.54 -0.67 M2.04 24.49 C5.9 18.92, 10.88 12.63, 22.33 1.06 M0.43 23.82 C5.84 17.32, 11.84 10.73, 20.57 -0.85 M1.21 29.64 C6.73 24.56, 12.63 18.56, 25.39 1.45 M0.5 29.53 C10.46 19.84, 19.08 8.41, 25.7 -0.47 M0.57 36.75 C5.58 27.05, 14.39 18.86, 29.95 0.32 M0.25 36.07 C9.09 27.06, 16.19 17.3, 32.83 -0.51 M1.27 44.46 C10.91 27.84, 26.4 12.05, 35.2 0.2 M0.57 42.73 C12.74 28.11, 26.7 12.04, 37.24 1.18 M-0.02 47.59 C9.15 34.64, 22.94 21.61, 41.53 -1.56 M-0.4 49.88 C8.73 38.86, 18.66 27.86, 43.03 -0.95 M0.06 54.24 C17.31 35.56, 33.21 18.93, 45.82 1.69 M-0.42 54.95 C12.3 40.1, 24.18 27.32, 47.06 0.19 M-1.12 60.32 C14.36 42.98, 26.96 27.56, 53.28 -1.73 M0.77 60.82 C18.97 39.68, 37.45 18.96, 52.49 -0.38 M-1.01 66.69 C19.15 46.72, 37.07 24.74, 56.77 0.69 M0.28 67.7 C19.99 46.08, 38.15 23.96, 58.69 0.53 M-1.31 73.84 C18.91 52.34, 36.07 30.53, 64.59 -2 M-0.65 73.81 C22.41 46.82, 45.01 23.16, 64.73 -0.4 M0.64 78.63 C16.62 58.5, 34.36 40.78, 67.78 -1.68 M-0.44 78.8 C27.56 47.34, 54.48 17.46, 69.36 -0.74 M2.31 83.89 C31.92 53.31, 56.86 20.72, 75.98 1.18 M1.96 83.33 C28.26 53.48, 52.84 23.69, 74.45 -1.04 M5.97 82.17 C24.7 61.16, 45.73 36.29, 80.69 0.04 M6.72 83.6 C30.41 57.59, 51.87 31.26, 78.97 -0.5 M13.33 82.98 C38.08 54.75, 59.18 26.41, 83.14 -1.32 M12.41 84.41 C27.41 66.3, 42.57 49.83, 84.48 0.25 M16.6 84.85 C45.11 52.49, 72.18 23.25, 89.53 1.66 M18.74 82.12 C41.56 57.64, 63.12 31.04, 89.07 -0.53 M22.48 81.62 C45.88 56.37, 71.34 26.69, 94.91 -1.27 M23.17 82.75 C47.21 54.65, 73 25.28, 94.86 -0.41 M27.98 82.8 C51.89 56.08, 76.18 28.99, 102.46 -0.68 M28.43 83.2 C50.14 60.74, 69.57 38.01, 99.92 -0.53 M31.78 84.08 C56 59.7, 77.6 34.25, 107.3 0.91 M32.51 83.58 C54.72 57.75, 77 33.55, 105.79 -0.32 M37.99 83.7 C61.32 54.87, 86.31 27.37, 111.82 -0.49 M40.06 82.47 C56.27 62.95, 74.16 42.1, 111.41 0.84 M43.46 84.97 C69.05 56.3, 96.74 26.84, 116.81 -1.13 M44.43 83.21 C61.94 60.66, 80.98 40.7, 115.97 -0.43 M49.64 84.61 C66.68 63.4, 83.93 40.76, 120.09 1.08 M49.06 83.16 C71.63 57.09, 94.07 30.71, 122.13 -0.94 M53.86 83.26 C81.59 55.64, 106.58 28.02, 125.06 -0.63 M55.55 84.01 C74.38 61.07, 93.13 40.11, 126.28 0.6 M61.14 81.89 C81.74 59.49, 103.62 33.03, 133.91 1.19 M61.03 83.06 C84.76 54.3, 110.32 27.13, 132.34 0.62 M63.51 84.25 C87.97 56.7, 112.85 26.48, 136.87 0.76 M66.2 83.46 C93.68 51.24, 124.27 17.22, 136.76 -0.03 M71.83 81.27 C93.97 56.54, 121.4 28.57, 142.08 1.38 M70.76 83.54 C89.12 63.03, 105.57 42.71, 142.96 0.15 M75.08 81.58 C99.92 57.53, 119.89 33.63, 148.86 -0.01 M75.37 83.08 C92.27 63.53, 109.18 43.72, 148.3 0.68 M79.54 84.59 C99.29 64.27, 117.41 39.7, 152.23 3.02 M80.52 83.32 C100.11 60.63, 120.54 37.67, 153.27 0.82 M87.39 83.26 C103.33 63.35, 120.73 41.58, 152.24 6.89 M85.72 83.51 C110.29 54.08, 135.16 25.71, 152.4 6.89 M93.26 84.74 C111.22 58.65, 131.84 35.07, 151.62 15.37 M91.76 84.42 C115.16 55.56, 140.13 27.48, 152.67 13.45 M97.43 81.61 C114.03 65.35, 131.32 45.9, 150.6 20.08 M96.57 83.42 C114.13 65.03, 130.07 46.13, 151.92 20.74 M103.13 84.24 C116.87 66.63, 134.43 46.97, 152.68 26.42 M102.12 83.7 C116.25 68.06, 129.42 50.76, 153.29 26.32 M106.34 83.31 C127.19 63.86, 141.03 43.21, 153.94 30 M106.93 82.6 C122.3 66.56, 135.61 49.88, 152.18 32.45 M113.12 82.19 C122.5 71.88, 135.32 59.82, 152.19 39.83 M113.05 82.86 C121.77 71.56, 133.37 60.3, 152.08 39.08 M117.42 83.39 C129.11 67.73, 140.16 57.02, 151.53 42.98 M118.48 82.9 C127.69 72.66, 135.9 64.31, 152.78 43.36 M122.37 85.03 C133.69 72.49, 145.09 55.63, 153.03 51.33 M124.19 84.14 C130.28 74.52, 136.55 66.58, 151.65 50.23 M130.12 83.21 C134.2 76.39, 141.53 69.27, 153.78 54.68 M128.56 83.24 C137.28 75.54, 143.17 66.26, 152.44 56.38 M135.15 84.55 C137.49 79.78, 143.4 72.96, 154.28 63.26 M134.36 83.41 C136.95 80.06, 141.32 74.83, 153.28 62.59 M138.14 84.42 C142.94 81.22, 145.64 76.54, 153.51 68.85 M139.23 82.66 C141.83 79.59, 146.01 76.5, 151.48 69.68 M143.65 83.7 C148.75 79.21, 149.87 76.74, 152.16 75.08 M144.62 83.22 C146.2 81.22, 148.61 78.45, 152.63 74.94" stroke="#e64980" stroke-width="0.5" fill="none"></path><path d="M1.96 0.87 C57.29 1.22, 112.45 1.47, 149.8 0.53 M0.16 0.93 C53.89 0.54, 106.98 0.83, 150.37 -0.24 M152.21 -1.03 C151.13 25.74, 151.24 49.44, 151.93 81.75 M151.22 -0.12 C150 17.97, 150.88 38.03, 151 81.94 M150.7 81.38 C92.26 82.1, 34.6 83.68, 0.99 81.76 M151.05 82.71 C90.97 83.16, 33.09 81.63, 0.19 82.6 M-1.93 80.59 C-0.25 51.26, 0.81 20.28, -0.77 -1.31 M-0.08 81.61 C-0.25 53.12, 0.57 24.4, 0.87 -0.31" stroke="#000000" stroke-width="1" fill="none"></path></g><g stroke-linecap="round" transform="translate(1212.160210498408 223.6369048777292) rotate(0 75.52297363716343 40.865170666684264)"><path d="M0 0 C0 0, 0 0, 0 0 M0 0 C0 0, 0 0, 0 0 M-0.09 6.34 C0.55 4.14, 2.54 2.71, 5.7 0.52 M-0.11 6.61 C1.57 4.38, 2.98 2.65, 5.05 0.26 M-0.87 10.94 C2.14 7.16, 6.58 3.89, 11.59 -0.71 M0.85 11.7 C4.07 8.53, 7.26 3.96, 11.03 -0.79 M0.61 17.34 C4.16 10.39, 12.67 3.75, 16.45 0.2 M-0.53 17.47 C3.73 14.07, 6.5 10.6, 16.13 -0.48 M0.66 25.97 C6.96 16.34, 14.73 7.8, 22.4 1.87 M-0.65 23.24 C4.75 19.25, 8.55 14.47, 21.69 0.14 M-1.81 31.21 C8.46 21.78, 13.55 13.72, 26.35 -1.04 M-0.76 29.98 C4.8 23.56, 11.41 18.28, 25.98 1.25 M1.32 37.89 C6.35 27.68, 17.32 17.48, 31.68 -0.43 M0.12 36.03 C12.61 22.3, 23.07 9.31, 31.2 0.29 M-0.25 41.62 C11.06 29.64, 23.33 17.38, 35.75 -0.38 M-0.29 42.59 C11.88 29.16, 24.58 14.42, 37.63 0.11 M-0.68 47.6 C15.11 31.18, 29.53 11.38, 41.76 -0.8 M-0.34 48.24 C13.68 33.59, 26.41 17.61, 43.05 0.21 M1.24 55.67 C18.25 34.1, 36.97 15.97, 46.06 1.07 M0.36 54.96 C15.97 35.62, 33.15 15.86, 46.72 1.03 M1.31 62.87 C15.71 41.81, 31.34 26.58, 53.91 -0.94 M0.97 60.46 C13.14 45.95, 27.06 29.34, 52.83 -0.77 M1.14 68.55 C14.84 50.3, 31.35 27.96, 58.86 0.54 M0.16 68.14 C22.4 42.55, 43.3 16.05, 58.51 -0.01 M-1.28 73.07 C19.76 49.04, 43.15 27.73, 62.52 -1.17 M-0.59 73.65 C13.9 56.8, 28.21 40.55, 63.27 0.26 M1.04 78.54 C22.33 52.66, 47.68 23.28, 69.88 -0.36 M-0.76 78.45 C25.28 49.71, 50.36 21.13, 68.96 1.07 M2.5 82.41 C20.9 64.22, 37.49 42.99, 73.15 1.51 M2.31 83.28 C26.18 55.79, 49.28 27.41, 75.29 -1.22 M6.94 81.23 C33.96 51.72, 63.7 19.6, 79.03 -1.72 M7.12 82.76 C23.37 63.81, 40.8 44.59, 79.72 -0.59 M10.27 81.87 C30.75 61.49, 48.38 40.16, 84.53 -0.54 M11.24 84.4 C34.99 56.35, 57.15 29.64, 84.98 -0.14 M19.5 81.62 C42.84 52.68, 71.44 21.26, 88.33 0.73 M18.03 83.6 C44.27 52.65, 70.41 22.82, 89.06 0.24 M24.77 82.43 C43.11 61.13, 64.64 38.69, 94.54 0.36 M23.36 83.73 C38.48 64.81, 55.77 46.12, 96.61 -0.87 M27.18 83.31 C53.54 57.13, 74.94 27.47, 100.01 1.63 M29.02 83.34 C47.16 58.95, 67.9 37.06, 100.98 -0.13 M34.08 82.83 C49.79 62.74, 70.39 44.32, 106.19 1.26 M32.72 82.51 C55.67 58.43, 77.57 33.08, 105.61 -0.19 M38.9 83.47 C55.99 62.58, 75.12 38.47, 110.41 -0.09 M39.57 82.11 C65.65 50.89, 93.52 19.64, 112.1 0.67 M44.44 82.14 C73.3 50.68, 102.25 18.32, 117.04 -0.7 M44.03 84.07 C66.89 57.44, 88.72 30.71, 116.93 0.47 M50.72 82.58 C70.42 61.54, 87 40.92, 120.06 0.9 M49.36 82.67 C64.14 67.25, 78.13 48.97, 122.75 0.12 M54.24 81.81 C68.39 66.18, 83.99 48.36, 127.72 -1.31 M55.65 82.81 C71.13 63.33, 86.37 45.75, 126.65 0.95 M59.85 82.52 C86.61 53.28, 111.79 23.93, 131.63 -1.76 M61.23 83.31 C87.52 51.18, 115.83 19.46, 131.92 -0.26 M64.03 83.6 C86.81 59.8, 107.56 36.2, 136.09 1.25 M64.65 83.19 C87.99 57.36, 110.34 31.42, 137.07 -0.02 M70.68 84.47 C89.38 59.84, 108.76 40.05, 143.94 -0.09 M70.18 82.93 C88.96 62.55, 107.91 40.9, 142.27 0.16 M74.5 83.63 C89.55 67.47, 106.38 51.4, 149.81 1.4 M75.74 82.78 C95.39 63.74, 112.75 42.32, 148.31 1.08 M80.07 83.73 C99.62 62.24, 116.99 38.89, 152.67 -0.23 M81.75 82.76 C99.6 61.96, 118.26 39.66, 151.8 1.59 M88.52 82.35 C108.24 60.37, 125.22 38.55, 153.12 8.45 M86.33 83.21 C102.09 64.92, 116.14 48.41, 152.1 7.91 M90.04 84.67 C109.62 66.46, 123.51 46.43, 151.08 13.55 M91.6 84.34 C113.98 57.27, 139.2 29.76, 151.67 12.84 M97.1 82.59 C116.7 62.06, 134.48 41.15, 152.62 18.47 M97.46 83.19 C112.4 65.7, 126.95 49.48, 152.54 19.13 M101.76 83.26 C115.72 70.65, 126.43 57.23, 151.66 25.71 M102.6 83.03 C115.33 68.55, 128.11 53.12, 152.72 25.21 M109.42 83.47 C121.7 68.53, 136.84 48.12, 151.37 33.38 M106.89 83.51 C118.53 70.75, 129.46 59.95, 153.19 32.5 M112.23 82.09 C124.58 69.32, 136.78 57.84, 153.21 38.36 M112.45 84.05 C123.11 70.96, 133.9 59.01, 151.65 38.39 M118.81 82.5 C131.35 67.67, 144.79 56.26, 153.65 44.98 M118.03 84.04 C128.08 71.3, 137.91 60.71, 152.86 43.84 M123.62 85.06 C129.97 75.66, 136.17 68.95, 150.65 51.71 M124.02 84.18 C131.75 73.02, 140.8 64.59, 151.79 49.86 M128.75 81.51 C136.78 77.68, 139.05 68.87, 150.9 56.38 M128.94 82.72 C139.21 72.21, 148.66 61.75, 152.53 55.58 M133.24 83.44 C139.74 77.5, 142.15 73.22, 153.09 62.58 M134.36 82.77 C139.99 76.7, 146.43 70.07, 152.18 62.48 M138.92 84.6 C144.52 79.57, 147.51 73.89, 151.12 68.83 M139.42 82.6 C141.64 80.61, 145.88 76.02, 151.73 68.49 M144.03 82.46 C145.62 80.24, 148.2 79.18, 152.52 74.96 M145.32 83.04 C147.05 80.93, 148.35 79.36, 152.96 74.4" stroke="#15aabf" stroke-width="0.5" fill="none"></path><path d="M-1.99 0.37 C32.91 1, 61.54 -2.27, 149.11 -1.14 M-0.04 -0.38 C40.35 0.2, 82.36 -0.46, 150.96 -0.12 M152.89 1.75 C150.85 24.98, 151.9 49.89, 149.11 80.72 M150.9 0.93 C150.89 16.78, 150.55 34.81, 150.72 82.5 M151.36 80.42 C117.48 81.63, 86.1 84.72, 0.87 80.96 M150.2 82.6 C98.56 83.19, 46.17 82.26, 0.71 81.42 M1.64 82.88 C-1.3 48.45, 1.63 20.16, -0.16 0.07 M-0.56 82.22 C0.09 53.73, -0.36 28, -0.58 0.82" stroke="#000000" stroke-width="1" fill="none"></path></g><g stroke-linecap="round" transform="translate(1215.2638943465108 335.5077685402263) rotate(0 75.52297363716343 40.86517066668429)"><path d="M0 0 C0 0, 0 0, 0 0 M0 0 C0 0, 0 0, 0 0 M-0.53 5.97 C1.36 5.23, 1.88 3.72, 5.07 -0.34 M-0.11 6.28 C1.53 4.72, 3.43 2.21, 4.93 0.64 M0.87 10.9 C3.77 10.22, 4.95 6.33, 11.47 1.28 M-0.15 12.11 C1.89 9.46, 3.95 6.1, 10.03 0.17 M-1.68 19.66 C3.53 13.96, 8.91 9.79, 17.37 0.52 M0.21 18.82 C5.92 11.6, 11.55 5.57, 15.24 1.11 M-0.78 22.45 C8.16 14.38, 15.45 7.37, 19.53 0.08 M-0.06 24.88 C5.92 16.75, 11.83 10.85, 20.36 -0.58 M0.86 30.03 C6.06 24.42, 13.22 16.35, 25.22 2.05 M0.18 29.78 C6.49 21.93, 14.17 14.28, 26.35 0.17 M0.28 35.63 C8.82 27.58, 18.57 17.7, 33.18 -0.48 M-0.39 37.76 C11.69 23.16, 22.36 11.57, 32.37 -0.09 M1.03 41.39 C11.48 28.2, 24.3 16.56, 35.06 1.46 M-0.34 42.37 C13.98 27.55, 26.16 11.38, 36.71 0.07 M1.75 47.03 C17.74 29.23, 32.71 10.08, 41.29 -0.9 M0.71 48.04 C14.48 31.54, 31.27 13.88, 43.16 -0.8 M1.35 53.04 C15.53 36.41, 31.72 17.65, 46.37 -1.63 M-0.04 55.05 C12.07 41.86, 21.41 29.27, 48.05 0.26 M0.31 61.13 C12.12 46.07, 24.67 34.28, 54.66 -1.66 M0.36 60.87 C18.91 39.97, 38.05 18.24, 52.66 -1.1 M-2.16 65.39 C13.81 52.24, 29.71 35.01, 57.76 -0.3 M0.42 67.12 C20.77 43.21, 41.35 20.92, 58.24 0.75 M0.46 73 C22.56 46.98, 45.78 19.75, 64.24 -0.88 M0.5 73.19 C19.48 52.31, 36.24 30.99, 64.46 -0.31 M0.63 78.92 C21.93 57.47, 38.57 33.11, 69.01 1.76 M0.01 78.69 C14.77 63.17, 28.28 47.51, 68.36 1.15 M1.17 81.54 C14.15 66.77, 30.5 51.3, 75.13 -0.36 M1.57 84.02 C29.48 51.13, 58.13 20.62, 74.83 0.34 M7.28 84.41 C30.23 54.41, 52.92 29.51, 79.08 0.16 M7.62 83.9 C36.95 49.67, 65.16 16.56, 79.62 -0.39 M11.14 85.46 C36.08 56.13, 62.05 25.23, 84.61 0.46 M12.73 83.43 C28.22 62.92, 47.06 43.37, 85.72 0.66 M16.98 83.08 C44.43 54.99, 68.2 23.75, 88.04 -0.1 M17.31 84.05 C42.02 56.21, 66.59 28.86, 90.43 -0.11 M23.13 84.41 C40.1 62.88, 56.63 44.68, 96.09 -1.53 M23.27 82.65 C42.95 59.49, 64.71 36.46, 95.74 0.59 M27.76 83.72 C53.22 56.38, 80.4 27.87, 99.16 1.28 M28.49 83.78 C51.82 56.96, 74.2 30.43, 101.36 0.32 M34.28 82.86 C53.82 59.82, 75.61 33.28, 105.16 0.92 M33.82 82.97 C59.89 52.82, 84.85 23.63, 107.16 -0.89 M41.07 81.7 C57.87 62.85, 77.37 37.64, 112.83 1.98 M39.5 83 C59.71 60.84, 78.66 36.85, 112.16 0.8 M42.87 82.58 C74.11 49.85, 102.3 19.06, 116.89 0.15 M44.19 83.22 C64.4 60.05, 82.93 38.58, 116.3 0.04 M48.52 84.72 C75.38 49.9, 104.59 18.78, 120.63 -1.01 M49.36 83.74 C65.81 62.65, 83.72 44.16, 122.74 -0.18 M54.33 84.7 C70.8 62.88, 87.15 44.22, 126.49 0.58 M54.35 82.82 C75.39 60.62, 95.01 36.28, 127.09 0.03 M61.87 82.85 C76.9 63.45, 92.2 45.37, 131.26 -1.32 M60.77 83.07 C77.34 65.76, 93.27 45.78, 132.21 -0.55 M67.27 83.71 C86.41 60.12, 107.04 36.21, 137.35 1.23 M65.47 82.78 C82.78 62.27, 101.25 40.72, 138.18 0.06 M71.05 82.47 C98.09 50.22, 126.45 20.57, 144.61 -1.27 M71.07 82.16 C100.7 49.97, 128.65 16.14, 143.81 0.31 M75.42 81.42 C97.49 60.29, 115.22 37.67, 149.67 -1.28 M76.87 82.67 C92.05 63.55, 107.53 46.83, 148.54 -0.57 M81.47 85.09 C101.39 57.88, 121.84 35.9, 152.4 -0.31 M80.66 84 C101.85 59.32, 122.36 34.78, 152.67 2.15 M85.71 85 C107.61 58.9, 127.31 32.95, 151.25 9.56 M87.03 83.65 C105.17 61.38, 123.02 40.7, 151.26 7.07 M90.7 82.29 C110.52 60.3, 132.38 37.34, 150.94 13 M92.56 83.42 C113.55 56.93, 138.25 30.43, 153.52 12.82 M96.19 84.95 C109.79 71.6, 120.4 57.42, 151.24 18.03 M96.64 83.45 C112.78 66.77, 127.28 49.06, 152.27 20.43 M102.45 82.24 C116.16 67.78, 128.19 55.25, 154.75 23.83 M101.47 84.55 C118.96 65.59, 134.76 46.53, 153.33 26.11 M106.08 85.13 C117.07 70.56, 129.66 55.59, 154.23 31.26 M107.52 83.4 C121.01 66.53, 135.47 51.65, 153.5 31.52 M111.29 84.72 C127.57 66.44, 139.38 50.39, 151.69 39.99 M113.47 82.88 C123.65 69.55, 135.5 58.71, 151.38 37.75 M117.75 84.72 C127.79 71.51, 137 59.17, 153.06 43.23 M117.69 83.37 C126.45 73.12, 136.04 63.12, 152.6 43.94 M123.9 83.85 C134.13 72.2, 142.64 63.19, 152.73 48.4 M124.26 82.97 C131.02 74.4, 138.01 65.74, 152.11 50.76 M130.74 84.28 C134.08 75.14, 141.13 68.01, 154.72 56.29 M128.34 82.83 C135.17 76.72, 141.14 69.82, 151.92 55.41 M133.16 82.08 C142.79 76.19, 148.71 65.58, 154.01 61.55 M134.24 83.44 C140.04 75.98, 146.01 69.6, 152.15 62.99 M139.74 83.64 C142.05 79.04, 147.39 77.71, 153.61 67.9 M138.86 83.81 C143.15 78.32, 147.39 73.27, 152.77 69.41 M144.35 83.91 C148.71 79.85, 151.54 75.37, 153.16 73.29 M145.19 83.78 C146.66 81.28, 148.16 80.16, 152.24 74.84" stroke="#fd7e14" stroke-width="0.5" fill="none"></path><path d="M1.67 1.07 C32.33 1.09, 64.41 1.35, 151.3 -0.73 M-0.92 0.87 C58.34 0.83, 115.43 1.22, 150.44 -0.79 M149.28 -1.71 C152.46 18.78, 153.09 41.71, 151.75 80.68 M150.85 0.98 C149.94 22.68, 151.43 45.75, 151.21 81.65 M151.63 83.68 C99.74 79.3, 45.78 80.91, 0.3 82.26 M150.57 81.21 C102.49 81.11, 54.01 80.33, 0.47 81.68 M-0.73 81.77 C-0.42 54.5, -0.96 26.73, -0.8 1.03 M-0.71 81.72 C0.11 62.91, 0.14 43.25, 0.44 0.3" stroke="#000000" stroke-width="1" fill="none"></path></g><g transform="translate(1236.6831841355715 145.92498278487363) rotate(0 51 11.5)"><text x="51" y="18" font-family="Helvetica, Segoe UI Emoji" font-size="20px" fill="#000000" text-anchor="middle" style="white-space: pre;" direction="ltr">vm_group1</text></g><g transform="translate(1240.0933651313317 253.1219014347039) rotate(0 51 11.5)"><text x="0" y="18" font-family="Helvetica, Segoe UI Emoji" font-size="20px" fill="#000000" text-anchor="start" style="white-space: pre;" direction="ltr">vm_group2</text></g><g transform="translate(1241.1279264140326 363.81995868369677) rotate(0 51 11.5)"><text x="0" y="18" font-family="Helvetica, Segoe UI Emoji" font-size="20px" fill="#000000" text-anchor="start" style="white-space: pre;" direction="ltr">vm_group3</text></g><g stroke-linecap="round"><g transform="translate(1030.0774247430554 246.91453373849868) rotate(0 87.71099080865486 -37.896650828733854)"><path d="M1.13 0.63 C30.37 -12.24, 146.3 -63.73, 175.16 -76.43 M0.26 -0.08 C29.39 -12.9, 145.55 -63.01, 174.39 -75.37" stroke="#000000" stroke-width="1" fill="none"></path></g><g transform="translate(1030.0774247430554 246.91453373849868) rotate(0 87.71099080865486 -37.896650828733854)"><path d="M153.6 -54.26 C156.95 -61.58, 164.48 -65.07, 175.02 -75.73 M152.85 -55.1 C157.07 -60.15, 163.95 -64.36, 174.33 -74.56" stroke="#000000" stroke-width="1" fill="none"></path></g><g transform="translate(1030.0774247430554 246.91453373849868) rotate(0 87.71099080865486 -37.896650828733854)"><path d="M145.49 -73.11 C151.21 -75.28, 161 -73.56, 175.02 -75.73 M144.74 -73.95 C150.68 -74.57, 159.46 -74.36, 174.33 -74.56" stroke="#000000" stroke-width="1" fill="none"></path></g></g><g transform="translate(1217.333016911913 41.34789002533387) rotate(0 71 23)"><text x="0" y="18" font-family="Helvetica, Segoe UI Emoji" font-size="20px" fill="#000000" text-anchor="start" style="white-space: pre;" direction="ltr">grouped vms</text><text x="0" y="41" font-family="Helvetica, Segoe UI Emoji" font-size="20px" fill="#000000" text-anchor="start" style="white-space: pre;" direction="ltr">by vmware tags</text></g><g transform="translate(1034.7564261275024 164.0355169317383) rotate(336.1991755811686 68 17)"><text x="0" y="14" font-family="Helvetica, Segoe UI Emoji" font-size="15.47103490819856px" fill="#000000" text-anchor="start" style="white-space: pre;" direction="ltr">selected operetable </text><text x="0" y="31" font-family="Helvetica, Segoe UI Emoji" font-size="15.47103490819856px" fill="#000000" text-anchor="start" style="white-space: pre;" direction="ltr">vm group by user</text></g><g stroke-linecap="round" transform="translate(10 10.000000000000007) rotate(0 694.1906206922822 293.8154042870464)"><path d="M-0.44 0.1 C472.18 -2.69, 944.48 -1.63, 1387.94 -0.37 M-0.02 -0.1 C352.82 5.02, 705.36 5.66, 1388.44 -0.22 M1387.93 0.61 C1387.42 232.22, 1387.43 462.22, 1388.64 588.04 M1388.66 0.25 C1390.39 144.6, 1390.05 289.53, 1388.09 587.6 M1388.77 587.67 C1058.04 589.23, 728.58 588.96, 0.4 587.12 M1388.15 587.68 C957.83 591.41, 526.46 591.07, -0.13 587.8 M0.41 588.06 C-2.5 457.23, -1.77 325.53, 0.71 0.37 M0.09 587.6 C-2.61 464.96, -2.4 341.62, 0.31 0.1" stroke="#000000" stroke-width="1" fill="none"></path></g></svg>